<svg id="Latvijas_Loto" data-name="Latvijas Loto" xmlns="http://www.w3.org/2000/svg" viewBox="0 0 1000 150" width="200" height="30">
<defs><style>.cls-1{fill:#a21c35;}.cls-2{fill:#f42534;}</style></defs>
<title>latvijas-loto-alternative-rgb_svg</title>
<path class="cls-1" d="M866.88,116.25A16.88,16.88,0,1,1,850,133.13,16.87,16.87,0,0,1,866.88,116.25Z"/>
<circle class="cls-2" cx="932.5" cy="67.5" r="67.5"/>
<path class="cls-1" d="M783.88,150c-22.31,0-42.46-15-42.46-43.17s20.64-43,42.81-43c21.83,0,42.46,15,42.46,43C826.69,132.22,809.16,150,783.88,150Zm.23-16.34c13,0,24.81-8.59,24.81-26.83,0-17.77-11.7-26.6-24.69-26.6s-24.81,8.94-24.81,26.6C759.42,125.06,770.76,133.65,784.11,133.65ZM697.33,80.58v68h17.29v-68h22.17V65.08H675v15.5ZM628,63.77c-22.19,0-42.82,14.9-42.82,43S605.29,150,627.58,150c25.29,0,42.82-17.77,42.82-43.17C670.4,78.79,649.77,63.77,628,63.77Zm-.13,69.88c-13.35,0-24.68-8.59-24.68-26.83,0-17.66,11.69-26.6,24.81-26.6s24.68,8.83,24.68,26.6C652.63,125.06,640.82,133.65,627.82,133.65ZM545.69,65.08H527.8v83.48h52.71v-16H545.69ZM356.27,120.54c0,18.48-13.71,29.2-31.36,29.2s-30.53-11.08-30.53-29.2v-8.71h9.42v8.58c0,13.24,8.59,20.27,21.11,20.27s21.34-7.28,21.34-20.27V73.9H325.86V65.08h30.41Zm25.53,7.38L372,148.56H361.65v-1.31l38.88-82.54h4.53l38.52,82.54v1.31H433.32l-9.78-20.64Zm3.34-8.59h35.07l-17.54-39Zm71.21,6.44c.6,11.21,13.47,15.51,23.73,15.51,10-.35,22.3-3.81,22.66-16,0-13.47-12.64-13.72-24-15.27-15.14-1.55-30.41-5.48-30.41-22.18,0-16.46,15.62-24.21,30.29-24.21,14.43-.36,30.65,6.68,31.25,22.91h-9.3c-1-10.63-12.17-14-21.71-14-9.19.36-20.63,4.17-20.63,15.14,0,12.41,12,12.88,22.18,14.19,16.58,1.91,32.08,4.89,32.08,23.38,0,17.88-17.17,24.33-32.32,24.69-15.5.35-32.92-7-33.51-24.22ZM269.61,65.08v83.48h10V65.08Zm-23.56,0-14.3,35.17-11.7,31.25h-.11l-12-31.25L193.46,65.08H124.17V74h25.75v74.55h9.67V74H186l31.76,74.9H222l34.71-82.4V65.08ZM91,64.71H86.47l-35.28,74.9H10V65.08H0v83.48H58l9.78-20.64h41.75l9.77,20.64h10.26v-1.31ZM71.08,119.33l17.54-39,17.53,39Z"/>
</svg>